<?xml version="1.0" standalone="no"?> <!DOCTYPE svg PUBLIC "-//W3C//DTD SVG 1.0//EN" "http://www.w3.org/TR/2001/REC-SVG-20010904/DTD/svg10.dtd" > <svg xmlns="http://www.w3.org/2000/svg" width="100%" height="100%">
<defs >
<font id="unibody8-regular" horiz-adv-x="722" ><font-face
    font-family="Unibody 8"
    units-per-em="1000"
    panose-1="2 0 5 0 0 0 0 0 0 0"
    ascent="1000"
    descent="-125"
    alphabetic="0" />
<missing-glyph horiz-adv-x="500" d="M438 0H63V1000H438V0ZM125 938V63H375V938H125Z" />
<glyph unicode=" " glyph-name="space" horiz-adv-x="375" />
<glyph unicode="!" glyph-name="exclam" horiz-adv-x="500" d="M370 995V880H255V995H370ZM370 870V755H255V870H370ZM370 745V630H255V745H370ZM370 620V505H255V620H370ZM370 495V380H255V495H370ZM370 245V130H255V245H370ZM370 120V5H255V120H370Z" />
<glyph unicode="&quot;" glyph-name="quotedbl" horiz-adv-x="750" d="M620 995V880H505V995H620ZM620 870V755H505V870H620ZM620 745V630H505V745H620ZM245 995V880H130V995H245ZM245 870V755H130V870H245ZM245 745V630H130V745H245Z" />
<glyph unicode="#" glyph-name="numbersign" horiz-adv-x="875" d="M620 870V755H505V870H620ZM745 745V630H630V745H745ZM620 620V505H505V620H620ZM370 870V755H255V870H370ZM620 745V630H505V745H620ZM620 495V380H505V495H620ZM370 745V630H255V745H370ZM495
745V630H380V745H495ZM745 370V255H630V370H745ZM370 620V505H255V620H370ZM620 370V255H505V370H620ZM620 245V130H505V245H620ZM245 745V630H130V745H245ZM370 495V380H255V495H370ZM495 370V255H380V370H495ZM370 370V255H255V370H370ZM245 370V255H130V370H245ZM370
245V130H255V245H370Z" />
<glyph unicode="$" glyph-name="dollar" horiz-adv-x="875" d="M495 1120V1005H380V1120H495ZM745 870V755H630V870H745ZM495 995V880H380V995H495ZM620 870V755H505V870H620ZM495 870V755H380V870H495ZM370 870V755H255V870H370ZM620 495V380H505V495H620ZM745
370V255H630V370H745ZM495 495V380H380V495H495ZM245 620V505H130V620H245ZM370 495V380H255V495H370ZM620 120V5H505V120H620ZM495 120V5H380V120H495ZM370 120V5H255V120H370ZM495 -5V-120H380V-5H495ZM245 120V5H130V120H245ZM495 -130V-245H380V-130H495ZM745
245V130H630V245H745ZM245 745V630H130V745H245Z" />
<glyph unicode="%" glyph-name="percent" horiz-adv-x="875" d="M745 870V755H630V870H745ZM745 745V630H630V745H745ZM370 870V755H255V870H370ZM620 620V505H505V620H620ZM245 870V755H130V870H245ZM245 745V630H130V745H245ZM495 495V380H380V495H495ZM745
245V130H630V245H745ZM745 120V5H630V120H745ZM370 370V255H255V370H370ZM620 120V5H505V120H620ZM245 245V130H130V245H245ZM245 120V5H130V120H245Z" />
<glyph unicode="&amp;" glyph-name="ampersand" horiz-adv-x="1000" d="M995 495V380H880V495H995ZM620 870V755H505V870H620ZM495 870V755H380V870H495ZM870 495V380H755V495H870ZM370 870V755H255V870H370ZM745 495V380H630V495H745ZM745 370V255H630V370H745ZM245
745V630H130V745H245ZM495 495V380H380V495H495ZM745 245V130H630V245H745ZM245 620V505H130V620H245ZM370 495V380H255V495H370ZM620 120V5H505V120H620ZM245 370V255H130V370H245ZM495 120V5H380V120H495ZM245 245V130H130V245H245ZM370 120V5H255V120H370Z"
/>
<glyph unicode="&apos;" glyph-name="quotesingle" horiz-adv-x="375" d="M245 995V880H130V995H245ZM245 870V755H130V870H245ZM245 745V630H130V745H245Z" />
<glyph unicode="(" glyph-name="parenleft" horiz-adv-x="625" d="M495 995V880H380V995H495ZM370 870V755H255V870H370ZM245 745V630H130V745H245ZM245 620V505H130V620H245ZM245 495V380H130V495H245ZM245 370V255H130V370H245ZM245 245V130H130V245H245ZM245
120V5H130V120H245ZM370 -5V-120H255V-5H370ZM495 -130V-245H380V-130H495Z" />
<glyph unicode=")" glyph-name="parenright" horiz-adv-x="625" d="M245 995V880H130V995H245ZM370 870V755H255V870H370ZM495 745V630H380V745H495ZM495 620V505H380V620H495ZM495 495V380H380V495H495ZM495 370V255H380V370H495ZM495 245V130H380V245H495ZM495
120V5H380V120H495ZM370 -5V-120H255V-5H370ZM245 -130V-245H130V-130H245Z" />
<glyph unicode="*" glyph-name="asterisk" horiz-adv-x="1125" d="M995 745V630H880V745H995ZM620 995V880H505V995H620ZM870 745V630H755V745H870ZM620 870V755H505V870H620ZM745 745V630H630V745H745ZM620 745V630H505V745H620ZM745 620V505H630V620H745ZM495
745V630H380V745H495ZM620 620V505H505V620H620ZM745 495V380H630V495H745ZM870 370V255H755V370H870ZM370 745V630H255V745H370ZM495 620V505H380V620H495ZM245 745V630H130V745H245ZM495 495V380H380V495H495ZM370 370V255H255V370H370Z" />
<glyph unicode="+" glyph-name="plus" horiz-adv-x="875" d="M745 495V380H630V495H745ZM495 745V630H380V745H495ZM495 620V505H380V620H495ZM620 495V380H505V495H620ZM495 495V380H380V495H495ZM370 495V380H255V495H370ZM495 370V255H380V370H495ZM245 495V380H130V495H245ZM495
245V130H380V245H495Z" />
<glyph unicode="," glyph-name="comma" horiz-adv-x="500" d="M370 245V130H255V245H370ZM370 120V5H255V120H370ZM370 -5V-120H255V-5H370ZM245 -130V-245H130V-130H245ZM120 -130V-245H5V-130H120Z" />
<glyph unicode="-" glyph-name="hyphen" horiz-adv-x="750" d="M620 370V255H505V370H620ZM495 370V255H380V370H495ZM370 370V255H255V370H370ZM245 370V255H130V370H245Z" />
<glyph unicode="." glyph-name="period" horiz-adv-x="500" d="M370 245V130H255V245H370ZM370 120V5H255V120H370Z" />
<glyph unicode="/" glyph-name="slash" horiz-adv-x="875" d="M745 870V755H630V870H745ZM745 745V630H630V745H745ZM620 620V505H505V620H620ZM495 495V380H380V495H495ZM370 370V255H255V370H370ZM245 245V130H130V245H245ZM245 120V5H130V120H245Z" />
<glyph unicode="0" glyph-name="zero" horiz-adv-x="875" d="M620 870V755H505V870H620ZM745 745V630H630V745H745ZM495 870V755H380V870H495ZM745 620V505H630V620H745ZM370 870V755H255V870H370ZM745 495V380H630V495H745ZM745 370V255H630V370H745ZM245 745V630H130V745H245ZM745
245V130H630V245H745ZM370 620V505H255V620H370ZM495 495V380H380V495H495ZM620 370V255H505V370H620ZM245 620V505H130V620H245ZM245 495V380H130V495H245ZM620 120V5H505V120H620ZM245 370V255H130V370H245ZM495 120V5H380V120H495ZM245 245V130H130V245H245ZM370
120V5H255V120H370Z" />
<glyph unicode="1" glyph-name="one" horiz-adv-x="875" d="M495 870V755H380V870H495ZM495 745V630H380V745H495ZM370 870V755H255V870H370ZM495 620V505H380V620H495ZM495 495V380H380V495H495ZM245 120V5H130V120H245ZM495 370V255H380V370H495ZM495 245V130H380V245H495ZM245
870V755H130V870H245ZM370 120V5H255V120H370ZM495 120V5H380V120H495ZM620 120V5H505V120H620ZM745 120V5H630V120H745Z" />
<glyph unicode="2" glyph-name="two" horiz-adv-x="875" d="M620 870V755H505V870H620ZM745 745V630H630V745H745ZM495 870V755H380V870H495ZM745 620V505H630V620H745ZM370 870V755H255V870H370ZM245 870V755H130V870H245ZM620 495V380H505V495H620ZM495 495V380H380V495H495ZM745
120V5H630V120H745ZM370 370V255H255V370H370ZM620 120V5H505V120H620ZM495 120V5H380V120H495ZM245 245V130H130V245H245ZM370 120V5H255V120H370ZM245 120V5H130V120H245Z" />
<glyph unicode="3" glyph-name="three" horiz-adv-x="875" d="M745 870V755H630V870H745ZM620 870V755H505V870H620ZM495 870V755H380V870H495ZM620 745V630H505V745H620ZM370 870V755H255V870H370ZM245 870V755H130V870H245ZM745 370V255H630V370H745ZM495 620V505H380V620H495ZM620
495V380H505V495H620ZM495 495V380H380V495H495ZM745 245V130H630V245H745ZM370 495V380H255V495H370ZM620 120V5H505V120H620ZM495 120V5H380V120H495ZM370 120V5H255V120H370ZM245 120V5H130V120H245Z" />
<glyph unicode="4" glyph-name="four" horiz-adv-x="875" d="M745 870V755H630V870H745ZM620 870V755H505V870H620ZM745 745V630H630V745H745ZM745 620V505H630V620H745ZM495 745V630H380V745H495ZM745 495V380H630V495H745ZM745 370V255H630V370H745ZM370 620V505H255V620H370ZM620
370V255H505V370H620ZM745 245V130H630V245H745ZM495 370V255H380V370H495ZM745 120V5H630V120H745ZM245 495V380H130V495H245ZM370 370V255H255V370H370ZM245 370V255H130V370H245Z" />
<glyph unicode="5" glyph-name="five" horiz-adv-x="875" d="M745 870V755H630V870H745ZM620 870V755H505V870H620ZM495 870V755H380V870H495ZM370 870V755H255V870H370ZM245 870V755H130V870H245ZM620 495V380H505V495H620ZM745 370V255H630V370H745ZM245 745V630H130V745H245ZM495
495V380H380V495H495ZM745 245V130H630V245H745ZM245 620V505H130V620H245ZM370 495V380H255V495H370ZM245 495V380H130V495H245ZM620 120V5H505V120H620ZM495 120V5H380V120H495ZM370 120V5H255V120H370ZM245 120V5H130V120H245Z" />
<glyph unicode="6" glyph-name="six" horiz-adv-x="875" d="M745 870V755H630V870H745ZM620 870V755H505V870H620ZM495 870V755H380V870H495ZM370 745V630H255V745H370ZM620 495V380H505V495H620ZM745 370V255H630V370H745ZM495 495V380H380V495H495ZM745 245V130H630V245H745ZM245
620V505H130V620H245ZM370 495V380H255V495H370ZM245 495V380H130V495H245ZM620 120V5H505V120H620ZM245 370V255H130V370H245ZM495 120V5H380V120H495ZM245 245V130H130V245H245ZM370 120V5H255V120H370Z" />
<glyph unicode="7" glyph-name="seven" horiz-adv-x="875" d="M745 870V755H630V870H745ZM620 870V755H505V870H620ZM745 745V630H630V745H745ZM495 870V755H380V870H495ZM370 870V755H255V870H370ZM620 620V505H505V620H620ZM245 870V755H130V870H245ZM495 495V380H380V495H495ZM370
370V255H255V370H370ZM370 245V130H255V245H370ZM370 120V5H255V120H370Z" />
<glyph unicode="8" glyph-name="eight" horiz-adv-x="875" d="M620 870V755H505V870H620ZM745 745V630H630V745H745ZM495 870V755H380V870H495ZM745 620V505H630V620H745ZM370 870V755H255V870H370ZM620 495V380H505V495H620ZM745 370V255H630V370H745ZM245 745V630H130V745H245ZM495
495V380H380V495H495ZM745 245V130H630V245H745ZM245 620V505H130V620H245ZM370 495V380H255V495H370ZM620 120V5H505V120H620ZM245 370V255H130V370H245ZM495 120V5H380V120H495ZM245 245V130H130V245H245ZM370 120V5H255V120H370Z" />
<glyph unicode="9" glyph-name="nine" horiz-adv-x="875" d="M620 870V755H505V870H620ZM745 745V630H630V745H745ZM495 870V755H380V870H495ZM745 620V505H630V620H745ZM370 870V755H255V870H370ZM745 495V380H630V495H745ZM745 370V255H630V370H745ZM620 495V380H505V495H620ZM245
745V630H130V745H245ZM495 495V380H380V495H495ZM245 620V505H130V620H245ZM370 495V380H255V495H370ZM620 245V130H505V245H620ZM495 120V5H380V120H495ZM370 120V5H255V120H370ZM245 120V5H130V120H245Z" />
<glyph unicode=":" glyph-name="colon" horiz-adv-x="500" d="M370 620V505H255V620H370ZM370 495V380H255V495H370ZM370 245V130H255V245H370ZM370 120V5H255V120H370Z" />
<glyph unicode=";" glyph-name="semicolon" horiz-adv-x="500" d="M370 620V505H255V620H370ZM370 495V380H255V495H370ZM370 245V130H255V245H370ZM370 120V5H255V120H370ZM370 -5V-120H255V-5H370ZM245 -130V-245H130V-130H245ZM120 -130V-245H5V-130H120Z" />
<glyph unicode="&lt;" glyph-name="less" horiz-adv-x="875" d="M620 870V755H505V870H620ZM495 745V630H380V745H495ZM370 620V505H255V620H370ZM245 495V380H130V495H245ZM370 370V255H255V370H370ZM495 245V130H380V245H495ZM620 120V5H505V120H620ZM745 870V755H630V870H745ZM745
120V5H630V120H745Z" />
<glyph unicode="=" glyph-name="equal" horiz-adv-x="875" d="M745 620V505H630V620H745ZM620 620V505H505V620H620ZM495 620V505H380V620H495ZM745 370V255H630V370H745ZM370 620V505H255V620H370ZM620 370V255H505V370H620ZM245 620V505H130V620H245ZM495 370V255H380V370H495ZM370
370V255H255V370H370ZM245 370V255H130V370H245Z" />
<glyph unicode="&gt;" glyph-name="greater" horiz-adv-x="875" d="M370 870V755H255V870H370ZM495 745V630H380V745H495ZM620 620V505H505V620H620ZM745 495V380H630V495H745ZM620 370V255H505V370H620ZM495 245V130H380V245H495ZM370 120V5H255V120H370ZM245
870V755H130V870H245ZM245 120V5H130V120H245Z" />
<glyph unicode="?" glyph-name="question" horiz-adv-x="750" d="M495 995V880H380V995H495ZM620 870V755H505V870H620ZM370 995V880H255V995H370ZM620 745V630H505V745H620ZM245 995V880H130V995H245ZM495 620V505H380V620H495ZM370 495V380H255V495H370ZM370
245V130H255V245H370ZM370 120V5H255V120H370Z" />
<glyph unicode="@" glyph-name="at" horiz-adv-x="1125" d="M495 -5V-120H380V-5H495ZM245 245V130H130V245H245ZM245 370V255H130V370H245ZM245 495V380H130V495H245ZM245 620V505H130V620H245ZM620 245V130H505V245H620ZM745 245V130H630V245H745ZM620 370V255H505V370H620ZM745
370V255H630V370H745ZM370 745V630H255V745H370ZM745 495V380H630V495H745ZM870 495V380H755V495H870ZM995 495V380H880V495H995ZM995 620V505H880V620H995ZM245 120V5H130V120H245ZM370 -5V-120H255V-5H370ZM620 620V505H505V620H620ZM620 745V630H505V745H620ZM495
745V630H380V745H495ZM870 745V630H755V745H870ZM745 745V630H630V745H745ZM745 -5V-120H630V-5H745ZM620 -5V-120H505V-5H620ZM870 -5V-120H755V-5H870ZM870 245V130H755V245H870ZM870 370V255H755V370H870ZM620 495V380H505V495H620ZM745 620V505H630V620H745ZM870
620V505H755V620H870ZM995 370V255H880V370H995Z" />
<glyph unicode="A" glyph-name="A" horiz-adv-x="875" d="M620 870V755H505V870H620ZM745 745V630H630V745H745ZM495 870V755H380V870H495ZM745 620V505H630V620H745ZM370 870V755H255V870H370ZM745 495V380H630V495H745ZM745 370V255H630V370H745ZM245 745V630H130V745H245ZM620
370V255H505V370H620ZM745 245V130H630V245H745ZM245 620V505H130V620H245ZM495 370V255H380V370H495ZM745 120V5H630V120H745ZM245 495V380H130V495H245ZM370 370V255H255V370H370ZM245 370V255H130V370H245ZM245 245V130H130V245H245ZM245 120V5H130V120H245Z"
/>
<glyph unicode="B" glyph-name="B" horiz-adv-x="875" d="M620 870V755H505V870H620ZM745 745V630H630V745H745ZM495 870V755H380V870H495ZM745 620V505H630V620H745ZM370 870V755H255V870H370ZM245 870V755H130V870H245ZM620 495V380H505V495H620ZM745 370V255H630V370H745ZM245
745V630H130V745H245ZM495 495V380H380V495H495ZM745 245V130H630V245H745ZM245 620V505H130V620H245ZM370 495V380H255V495H370ZM245 495V380H130V495H245ZM620 120V5H505V120H620ZM245 370V255H130V370H245ZM495 120V5H380V120H495ZM245 245V130H130V245H245ZM370
120V5H255V120H370ZM245 120V5H130V120H245Z" />
<glyph unicode="C" glyph-name="C" horiz-adv-x="875" d="M745 870V755H630V870H745ZM620 870V755H505V870H620ZM495 870V755H380V870H495ZM370 870V755H255V870H370ZM245 745V630H130V745H245ZM245 620V505H130V620H245ZM745 120V5H630V120H745ZM245 495V380H130V495H245ZM620
120V5H505V120H620ZM245 370V255H130V370H245ZM495 120V5H380V120H495ZM245 245V130H130V245H245ZM370 120V5H255V120H370ZM745 745V630H630V745H745Z" />
<glyph unicode="D" glyph-name="D" horiz-adv-x="875" d="M495 870V755H380V870H495ZM620 745V630H505V745H620ZM745 620V505H630V620H745ZM370 870V755H255V870H370ZM745 495V380H630V495H745ZM245 870V755H130V870H245ZM745 370V255H630V370H745ZM245 745V630H130V745H245ZM245
620V505H130V620H245ZM620 245V130H505V245H620ZM245 495V380H130V495H245ZM245 370V255H130V370H245ZM495 120V5H380V120H495ZM245 245V130H130V245H245ZM370 120V5H255V120H370ZM245 120V5H130V120H245Z" />
<glyph unicode="E" glyph-name="E" horiz-adv-x="875" d="M745 870V755H630V870H745ZM620 870V755H505V870H620ZM495 870V755H380V870H495ZM370 870V755H255V870H370ZM245 870V755H130V870H245ZM620 495V380H505V495H620ZM245 745V630H130V745H245ZM495 495V380H380V495H495ZM245
620V505H130V620H245ZM370 495V380H255V495H370ZM745 120V5H630V120H745ZM245 495V380H130V495H245ZM620 120V5H505V120H620ZM245 370V255H130V370H245ZM495 120V5H380V120H495ZM245 245V130H130V245H245ZM370 120V5H255V120H370ZM245 120V5H130V120H245Z" />
<glyph unicode="F" glyph-name="F" horiz-adv-x="750" d="M745 870V755H630V870H745ZM620 870V755H505V870H620ZM495 870V755H380V870H495ZM370 870V755H255V870H370ZM245 870V755H130V870H245ZM620 495V380H505V495H620ZM245 745V630H130V745H245ZM495 495V380H380V495H495ZM245
620V505H130V620H245ZM370 495V380H255V495H370ZM245 495V380H130V495H245ZM245 370V255H130V370H245ZM245 245V130H130V245H245ZM245 120V5H130V120H245Z" />
<glyph unicode="G" glyph-name="G" horiz-adv-x="875" d="M745 870V755H630V870H745ZM620 870V755H505V870H620ZM495 870V755H380V870H495ZM370 870V755H255V870H370ZM745 370V255H630V370H745ZM245 745V630H130V745H245ZM620 370V255H505V370H620ZM745 245V130H630V245H745ZM245
620V505H130V620H245ZM245 495V380H130V495H245ZM620 120V5H505V120H620ZM245 370V255H130V370H245ZM495 120V5H380V120H495ZM245 245V130H130V245H245ZM370 120V5H255V120H370Z" />
<glyph unicode="H" glyph-name="H" horiz-adv-x="875" d="M745 870V755H630V870H745ZM745 745V630H630V745H745ZM745 620V505H630V620H745ZM745 495V380H630V495H745ZM245 870V755H130V870H245ZM620 495V380H505V495H620ZM745 370V255H630V370H745ZM745 245V130H630V245H745ZM245
745V630H130V745H245ZM495 495V380H380V495H495ZM245 620V505H130V620H245ZM370 495V380H255V495H370ZM745 120V5H630V120H745ZM245 495V380H130V495H245ZM245 370V255H130V370H245ZM245 245V130H130V245H245ZM245 120V5H130V120H245Z" />
<glyph unicode="I" glyph-name="I" horiz-adv-x="625" d="M495 870V755H380V870H495ZM370 870V755H255V870H370ZM245 870V755H130V870H245ZM370 745V630H255V745H370ZM370 620V505H255V620H370ZM370 495V380H255V495H370ZM370 370V255H255V370H370ZM370 245V130H255V245H370ZM495
120V5H380V120H495ZM370 120V5H255V120H370ZM245 120V5H130V120H245Z" />
<glyph unicode="J" glyph-name="J" horiz-adv-x="875" d="M745 870V755H630V870H745ZM620 870V755H505V870H620ZM745 745V630H630V745H745ZM495 870V755H380V870H495ZM745 620V505H630V620H745ZM370 870V755H255V870H370ZM745 495V380H630V495H745ZM745 370V255H630V370H745ZM745
245V130H630V245H745ZM620 120V5H505V120H620ZM245 370V255H130V370H245ZM495 120V5H380V120H495ZM245 245V130H130V245H245ZM370 120V5H255V120H370Z" />
<glyph unicode="K" glyph-name="K" horiz-adv-x="875" d="M745 870V755H630V870H745ZM745 745V630H630V745H745ZM620 620V505H505V620H620ZM245 870V755H130V870H245ZM245 745V630H130V745H245ZM495 495V380H380V495H495ZM620 370V255H505V370H620ZM745 245V130H630V245H745ZM245
620V505H130V620H245ZM370 495V380H255V495H370ZM745 120V5H630V120H745ZM245 495V380H130V495H245ZM245 370V255H130V370H245ZM245 245V130H130V245H245ZM245 120V5H130V120H245Z" />
<glyph unicode="L" glyph-name="L" horiz-adv-x="750" d="M245 870V755H130V870H245ZM245 745V630H130V745H245ZM245 620V505H130V620H245ZM745 120V5H630V120H745ZM245 495V380H130V495H245ZM620 120V5H505V120H620ZM245 370V255H130V370H245ZM495 120V5H380V120H495ZM245
245V130H130V245H245ZM370 120V5H255V120H370ZM245 120V5H130V120H245Z" />
<glyph unicode="M" glyph-name="M" horiz-adv-x="1125" d="M995 870V755H880V870H995ZM995 745V630H880V745H995ZM995 620V505H880V620H995ZM870 620V505H755V620H870ZM995 495V380H880V495H995ZM995 370V255H880V370H995ZM745 495V380H630V495H745ZM995 245V130H880V245H995ZM245
870V755H130V870H245ZM995 120V5H880V120H995ZM245 745V630H130V745H245ZM370 620V505H255V620H370ZM495 495V380H380V495H495ZM620 370V255H505V370H620ZM245 620V505H130V620H245ZM245 495V380H130V495H245ZM245 370V255H130V370H245ZM245 245V130H130V245H245ZM245
120V5H130V120H245Z" />
<glyph unicode="N" glyph-name="N" horiz-adv-x="875" d="M745 870V755H630V870H745ZM745 745V630H630V745H745ZM745 620V505H630V620H745ZM745 495V380H630V495H745ZM245 870V755H130V870H245ZM745 370V255H630V370H745ZM245 745V630H130V745H245ZM370 620V505H255V620H370ZM495
495V380H380V495H495ZM620 370V255H505V370H620ZM745 245V130H630V245H745ZM245 620V505H130V620H245ZM745 120V5H630V120H745ZM245 495V380H130V495H245ZM245 370V255H130V370H245ZM245 245V130H130V245H245ZM245 120V5H130V120H245Z" />
<glyph unicode="O" glyph-name="O" horiz-adv-x="875" d="M620 870V755H505V870H620ZM745 745V630H630V745H745ZM495 870V755H380V870H495ZM745 620V505H630V620H745ZM370 870V755H255V870H370ZM745 495V380H630V495H745ZM745 370V255H630V370H745ZM245 745V630H130V745H245ZM745
245V130H630V245H745ZM245 620V505H130V620H245ZM245 495V380H130V495H245ZM620 120V5H505V120H620ZM245 370V255H130V370H245ZM495 120V5H380V120H495ZM245 245V130H130V245H245ZM370 120V5H255V120H370Z" />
<glyph unicode="P" glyph-name="P" horiz-adv-x="875" d="M620 870V755H505V870H620ZM745 745V630H630V745H745ZM495 870V755H380V870H495ZM745 620V505H630V620H745ZM370 870V755H255V870H370ZM245 870V755H130V870H245ZM620 495V380H505V495H620ZM245 745V630H130V745H245ZM495
495V380H380V495H495ZM245 620V505H130V620H245ZM370 495V380H255V495H370ZM245 495V380H130V495H245ZM245 370V255H130V370H245ZM245 245V130H130V245H245ZM245 120V5H130V120H245Z" />
<glyph unicode="Q" glyph-name="Q" horiz-adv-x="875" d="M620 870V755H505V870H620ZM745 745V630H630V745H745ZM495 870V755H380V870H495ZM745 620V505H630V620H745ZM370 870V755H255V870H370ZM745 495V380H630V495H745ZM745 370V255H630V370H745ZM245 745V630H130V745H245ZM745
245V130H630V245H745ZM245 620V505H130V620H245ZM870 -130V-245H755V-130H870ZM245 495V380H130V495H245ZM620 120V5H505V120H620ZM620 -5V-120H505V-5H620ZM745 -130V-245H630V-130H745ZM245 370V255H130V370H245ZM495 120V5H380V120H495ZM245 245V130H130V245H245ZM370
120V5H255V120H370ZM995 -130V-245H880V-130H995Z" />
<glyph unicode="R" glyph-name="R" horiz-adv-x="875" d="M620 870V755H505V870H620ZM745 745V630H630V745H745ZM495 870V755H380V870H495ZM745 620V505H630V620H745ZM370 870V755H255V870H370ZM245 870V755H130V870H245ZM620 495V380H505V495H620ZM245 745V630H130V745H245ZM495
495V380H380V495H495ZM245 620V505H130V620H245ZM370 495V380H255V495H370ZM495 370V255H380V370H495ZM620 245V130H505V245H620ZM745 120V5H630V120H745ZM245 495V380H130V495H245ZM245 370V255H130V370H245ZM245 245V130H130V245H245ZM245 120V5H130V120H245Z"
/>
<glyph unicode="S" glyph-name="S" horiz-adv-x="875" d="M745 870V755H630V870H745ZM620 870V755H505V870H620ZM495 870V755H380V870H495ZM370 870V755H255V870H370ZM620 495V380H505V495H620ZM745 370V255H630V370H745ZM245 745V630H130V745H245ZM495 495V380H380V495H495ZM745
245V130H630V245H745ZM245 620V505H130V620H245ZM370 495V380H255V495H370ZM620 120V5H505V120H620ZM495 120V5H380V120H495ZM370 120V5H255V120H370ZM245 120V5H130V120H245Z" />
<glyph unicode="T" glyph-name="T" horiz-adv-x="625" d="M620 870V755H505V870H620ZM495 870V755H380V870H495ZM370 870V755H255V870H370ZM245 870V755H130V870H245ZM370 745V630H255V745H370ZM120 870V755H5V870H120ZM370 620V505H255V620H370ZM370 495V380H255V495H370ZM370
370V255H255V370H370ZM370 245V130H255V245H370ZM370 120V5H255V120H370Z" />
<glyph unicode="U" glyph-name="U" horiz-adv-x="875" d="M745 870V755H630V870H745ZM745 745V630H630V745H745ZM745 620V505H630V620H745ZM745 495V380H630V495H745ZM245 870V755H130V870H245ZM745 370V255H630V370H745ZM245 745V630H130V745H245ZM745 245V130H630V245H745ZM245
620V505H130V620H245ZM245 495V380H130V495H245ZM620 120V5H505V120H620ZM245 370V255H130V370H245ZM495 120V5H380V120H495ZM245 245V130H130V245H245ZM370 120V5H255V120H370Z" />
<glyph unicode="V" glyph-name="V" horiz-adv-x="875" d="M745 870V755H630V870H745ZM745 745V630H630V745H745ZM745 620V505H630V620H745ZM745 495V380H630V495H745ZM245 870V755H130V870H245ZM745 370V255H630V370H745ZM245 745V630H130V745H245ZM245 620V505H130V620H245ZM620
245V130H505V245H620ZM245 495V380H130V495H245ZM245 370V255H130V370H245ZM370 245V130H255V245H370ZM495 120V5H380V120H495Z" />
<glyph unicode="W" glyph-name="W" horiz-adv-x="1125" d="M995 870V755H880V870H995ZM995 745V630H880V745H995ZM995 620V505H880V620H995ZM995 495V380H880V495H995ZM995 370V255H880V370H995ZM995 245V130H880V245H995ZM245 870V755H130V870H245ZM620 495V380H505V495H620ZM745
370V255H630V370H745ZM870 245V130H755V245H870ZM995 120V5H880V120H995ZM245 745V630H130V745H245ZM245 620V505H130V620H245ZM495 370V255H380V370H495ZM245 495V380H130V495H245ZM245 370V255H130V370H245ZM370 245V130H255V245H370ZM245 245V130H130V245H245ZM245
120V5H130V120H245Z" />
<glyph unicode="X" glyph-name="X" horiz-adv-x="875" d="M745 870V755H630V870H745ZM745 745V630H630V745H745ZM620 620V505H505V620H620ZM245 870V755H130V870H245ZM245 745V630H130V745H245ZM370 620V505H255V620H370ZM495 495V380H380V495H495ZM620 370V255H505V370H620ZM745
245V130H630V245H745ZM745 120V5H630V120H745ZM370 370V255H255V370H370ZM245 245V130H130V245H245ZM245 120V5H130V120H245Z" />
<glyph unicode="Y" glyph-name="Y" horiz-adv-x="875" d="M745 870V755H630V870H745ZM745 745V630H630V745H745ZM620 620V505H505V620H620ZM245 870V755H130V870H245ZM245 745V630H130V745H245ZM370 620V505H255V620H370ZM495 495V380H380V495H495ZM495 370V255H380V370H495ZM495
245V130H380V245H495ZM495 120V5H380V120H495Z" />
<glyph unicode="Z" glyph-name="Z" horiz-adv-x="875" d="M745 870V755H630V870H745ZM620 870V755H505V870H620ZM745 745V630H630V745H745ZM495 870V755H380V870H495ZM370 870V755H255V870H370ZM620 620V505H505V620H620ZM245 870V755H130V870H245ZM495 495V380H380V495H495ZM745
120V5H630V120H745ZM370 370V255H255V370H370ZM620 120V5H505V120H620ZM495 120V5H380V120H495ZM245 245V130H130V245H245ZM370 120V5H255V120H370ZM245 120V5H130V120H245Z" />
<glyph unicode="[" glyph-name="bracketleft" horiz-adv-x="750" d="M620 995V880H505V995H620ZM495 995V880H380V995H495ZM370 995V880H255V995H370ZM245 995V880H130V995H245ZM245 870V755H130V870H245ZM245 745V630H130V745H245ZM245 620V505H130V620H245ZM245
495V380H130V495H245ZM245 370V255H130V370H245ZM245 245V130H130V245H245ZM620 -130V-245H505V-130H620ZM245 120V5H130V120H245ZM495 -130V-245H380V-130H495ZM245 -5V-120H130V-5H245ZM370 -130V-245H255V-130H370ZM245 -130V-245H130V-130H245Z" />
<glyph unicode="\" glyph-name="backslash" horiz-adv-x="875" d="M245 755H130V870H245V755ZM245 630H130V745H245V630ZM370 505H255V620H370V505ZM495 380H380V495H495V380ZM620 255H505V370H620V255ZM745 130H630V245H745V130ZM745 5H630V120H745V5Z" />
<glyph unicode="]" glyph-name="bracketright" horiz-adv-x="750" d="M620 995V880H505V995H620ZM620 870V755H505V870H620ZM495 995V880H380V995H495ZM370 995V880H255V995H370ZM620 745V630H505V745H620ZM245 995V880H130V995H245ZM620 620V505H505V620H620ZM620
495V380H505V495H620ZM620 370V255H505V370H620ZM620 245V130H505V245H620ZM620 120V5H505V120H620ZM620 -5V-120H505V-5H620ZM620 -130V-245H505V-130H620ZM495 -130V-245H380V-130H495ZM370 -130V-245H255V-130H370ZM245 -130V-245H130V-130H245Z" />
<glyph unicode="^" glyph-name="asciicircum" horiz-adv-x="875" d="M495 995V880H380V995H495ZM620 870V755H505V870H620ZM745 745V630H630V745H745ZM370 870V755H255V870H370ZM245 745V630H130V745H245Z" />
<glyph unicode="_" glyph-name="underscore" horiz-adv-x="625" d="M620 120V5H505V120H620ZM495 120V5H380V120H495ZM370 120V5H255V120H370ZM245 120V5H130V120H245ZM120 120V5H5V120H120Z" />
<glyph unicode="`" glyph-name="grave" horiz-adv-x="500" d="M245 1120V1005H130V1120H245ZM370 995V880H255V995H370Z" />
<glyph unicode="a" glyph-name="a" horiz-adv-x="875" d="M745 495V380H630V495H745ZM620 620V505H505V620H620ZM745 370V255H630V370H745ZM495 620V505H380V620H495ZM745 245V130H630V245H745ZM370 620V505H255V620H370ZM620 370V255H505V370H620ZM495 370V255H380V370H495ZM745
120V5H630V120H745ZM370 370V255H255V370H370ZM620 120V5H505V120H620ZM495 120V5H380V120H495ZM245 245V130H130V245H245ZM370 120V5H255V120H370Z" />
<glyph unicode="b" glyph-name="b" horiz-adv-x="875" d="M245 995V880H130V995H245ZM620 620V505H505V620H620ZM745 495V380H630V495H745ZM245 870V755H130V870H245ZM495 620V505H380V620H495ZM745 370V255H630V370H745ZM245 745V630H130V745H245ZM370 620V505H255V620H370ZM745
245V130H630V245H745ZM245 620V505H130V620H245ZM245 495V380H130V495H245ZM620 120V5H505V120H620ZM245 370V255H130V370H245ZM495 120V5H380V120H495ZM245 245V130H130V245H245ZM370 120V5H255V120H370ZM245 120V5H130V120H245Z" />
<glyph unicode="c" glyph-name="c" horiz-adv-x="875" d="M745 620V505H630V620H745ZM620 620V505H505V620H620ZM495 620V505H380V620H495ZM370 620V505H255V620H370ZM745 120V5H630V120H745ZM245 495V380H130V495H245ZM620 120V5H505V120H620ZM245 370V255H130V370H245ZM495
120V5H380V120H495ZM245 245V130H130V245H245ZM370 120V5H255V120H370Z" />
<glyph unicode="d" glyph-name="d" horiz-adv-x="875" d="M745 995V880H630V995H745ZM745 870V755H630V870H745ZM745 745V630H630V745H745ZM745 620V505H630V620H745ZM620 620V505H505V620H620ZM745 495V380H630V495H745ZM495 620V505H380V620H495ZM745 370V255H630V370H745ZM370
620V505H255V620H370ZM745 245V130H630V245H745ZM745 120V5H630V120H745ZM245 495V380H130V495H245ZM620 120V5H505V120H620ZM245 370V255H130V370H245ZM495 120V5H380V120H495ZM245 245V130H130V245H245ZM370 120V5H255V120H370Z" />
<glyph unicode="e" glyph-name="e" horiz-adv-x="875" d="M620 620V505H505V620H620ZM745 495V380H630V495H745ZM495 620V505H380V620H495ZM745 370V255H630V370H745ZM370 620V505H255V620H370ZM620 370V255H505V370H620ZM495 370V255H380V370H495ZM745 120V5H630V120H745ZM245
495V380H130V495H245ZM370 370V255H255V370H370ZM620 120V5H505V120H620ZM245 370V255H130V370H245ZM495 120V5H380V120H495ZM245 245V130H130V245H245ZM370 120V5H255V120H370Z" />
<glyph unicode="f" glyph-name="f" horiz-adv-x="625" d="M745 995V880H630V995H745ZM620 995V880H505V995H620ZM495 995V880H380V995H495ZM370 870V755H255V870H370ZM620 620V505H505V620H620ZM370 745V630H255V745H370ZM495 620V505H380V620H495ZM370 620V505H255V620H370ZM245
620V505H130V620H245ZM370 495V380H255V495H370ZM120 620V505H5V620H120ZM370 370V255H255V370H370ZM370 245V130H255V245H370ZM370 120V5H255V120H370Z" />
<glyph unicode="g" glyph-name="g" horiz-adv-x="875" d="M745 620V505H630V620H745ZM620 620V505H505V620H620ZM745 495V380H630V495H745ZM495 620V505H380V620H495ZM745 370V255H630V370H745ZM370 620V505H255V620H370ZM745 245V130H630V245H745ZM745 120V5H630V120H745ZM245
495V380H130V495H245ZM620 120V5H505V120H620ZM745 -5V-120H630V-5H745ZM245 370V255H130V370H245ZM495 120V5H380V120H495ZM245 245V130H130V245H245ZM370 120V5H255V120H370ZM620 -130V-245H505V-130H620ZM495 -130V-245H380V-130H495ZM370 -130V-245H255V-130H370ZM245
-130V-245H130V-130H245Z" />
<glyph unicode="h" glyph-name="h" horiz-adv-x="875" d="M245 995V880H130V995H245ZM620 620V505H505V620H620ZM745 495V380H630V495H745ZM245 870V755H130V870H245ZM495 620V505H380V620H495ZM745 370V255H630V370H745ZM245 745V630H130V745H245ZM370 620V505H255V620H370ZM745
245V130H630V245H745ZM245 620V505H130V620H245ZM745 120V5H630V120H745ZM245 495V380H130V495H245ZM245 370V255H130V370H245ZM245 245V130H130V245H245ZM245 120V5H130V120H245Z" />
<glyph unicode="i" glyph-name="i" horiz-adv-x="375" d="M245 995V880H130V995H245ZM245 620V505H130V620H245ZM245 495V380H130V495H245ZM245 370V255H130V370H245ZM245 245V130H130V245H245ZM245 120V5H130V120H245Z" />
<glyph unicode="j" glyph-name="j" horiz-adv-x="375" d="M245 995V880H130V995H245ZM245 620V505H130V620H245ZM245 495V380H130V495H245ZM245 370V255H130V370H245ZM245 245V130H130V245H245ZM245 120V5H130V120H245ZM245 -5V-120H130V-5H245ZM120 -130V-245H5V-130H120Z"
/>
<glyph unicode="k" glyph-name="k" horiz-adv-x="875" d="M245 995V880H130V995H245ZM620 620V505H505V620H620ZM245 870V755H130V870H245ZM245 745V630H130V745H245ZM495 495V380H380V495H495ZM245 620V505H130V620H245ZM495 370V255H380V370H495ZM245 495V380H130V495H245ZM370
370V255H255V370H370ZM245 370V255H130V370H245ZM245 245V130H130V245H245ZM245 120V5H130V120H245ZM620 245V130H505V245H620ZM745 120V5H630V120H745Z" />
<glyph unicode="l" glyph-name="l" horiz-adv-x="500" d="M245 995V880H130V995H245ZM245 870V755H130V870H245ZM245 745V630H130V745H245ZM245 620V505H130V620H245ZM245 495V380H130V495H245ZM245 370V255H130V370H245ZM495 120V5H380V120H495ZM245 245V130H130V245H245ZM370
120V5H255V120H370Z" />
<glyph unicode="m" glyph-name="m" horiz-adv-x="1125" d="M870 620V505H755V620H870ZM995 495V380H880V495H995ZM745 620V505H630V620H745ZM995 370V255H880V370H995ZM620 620V505H505V620H620ZM995 245V130H880V245H995ZM495 620V505H380V620H495ZM620 495V380H505V495H620ZM995
120V5H880V120H995ZM370 620V505H255V620H370ZM620 370V255H505V370H620ZM245 620V505H130V620H245ZM620 245V130H505V245H620ZM245 495V380H130V495H245ZM620 120V5H505V120H620ZM245 370V255H130V370H245ZM245 245V130H130V245H245ZM245 120V5H130V120H245Z"
/>
<glyph unicode="n" glyph-name="n" horiz-adv-x="875" d="M620 620V505H505V620H620ZM745 495V380H630V495H745ZM495 620V505H380V620H495ZM745 370V255H630V370H745ZM370 620V505H255V620H370ZM745 245V130H630V245H745ZM245 620V505H130V620H245ZM745 120V5H630V120H745ZM245
495V380H130V495H245ZM245 370V255H130V370H245ZM245 245V130H130V245H245ZM245 120V5H130V120H245Z" />
<glyph unicode="o" glyph-name="o" horiz-adv-x="875" d="M620 620V505H505V620H620ZM745 495V380H630V495H745ZM495 620V505H380V620H495ZM745 370V255H630V370H745ZM370 620V505H255V620H370ZM745 245V130H630V245H745ZM245 495V380H130V495H245ZM620 120V5H505V120H620ZM245
370V255H130V370H245ZM495 120V5H380V120H495ZM245 245V130H130V245H245ZM370 120V5H255V120H370Z" />
<glyph unicode="p" glyph-name="p" horiz-adv-x="875" d="M620 620V505H505V620H620ZM745 495V380H630V495H745ZM495 620V505H380V620H495ZM745 370V255H630V370H745ZM370 620V505H255V620H370ZM745 245V130H630V245H745ZM245 620V505H130V620H245ZM245 495V380H130V495H245ZM620
120V5H505V120H620ZM245 370V255H130V370H245ZM495 120V5H380V120H495ZM245 245V130H130V245H245ZM370 120V5H255V120H370ZM245 120V5H130V120H245ZM245 -5V-120H130V-5H245ZM245 -130V-245H130V-130H245Z" />
<glyph unicode="q" glyph-name="q" horiz-adv-x="875" d="M745 620V505H630V620H745ZM620 620V505H505V620H620ZM745 495V380H630V495H745ZM495 620V505H380V620H495ZM745 370V255H630V370H745ZM370 620V505H255V620H370ZM745 245V130H630V245H745ZM745 120V5H630V120H745ZM245
495V380H130V495H245ZM620 120V5H505V120H620ZM745 -5V-120H630V-5H745ZM245 370V255H130V370H245ZM495 120V5H380V120H495ZM745 -130V-245H630V-130H745ZM245 245V130H130V245H245ZM370 120V5H255V120H370Z" />
<glyph unicode="r" glyph-name="r" horiz-adv-x="625" d="M620 620V505H505V620H620ZM495 620V505H380V620H495ZM245 620V505H130V620H245ZM370 495V380H255V495H370ZM245 495V380H130V495H245ZM245 370V255H130V370H245ZM245 245V130H130V245H245ZM245 120V5H130V120H245Z"
/>
<glyph unicode="s" glyph-name="s" horiz-adv-x="750" d="M620 620V505H505V620H620ZM495 620V505H380V620H495ZM370 620V505H255V620H370ZM495 370V255H380V370H495ZM620 245V130H505V245H620ZM245 495V380H130V495H245ZM370 370V255H255V370H370ZM495 120V5H380V120H495ZM370
120V5H255V120H370ZM245 120V5H130V120H245Z" />
<glyph unicode="t" glyph-name="t" horiz-adv-x="750" d="M620 620V505H505V620H620ZM245 870V755H130V870H245ZM495 620V505H380V620H495ZM245 745V630H130V745H245ZM370 620V505H255V620H370ZM245 620V505H130V620H245ZM245 495V380H130V495H245ZM620 120V5H505V120H620ZM245
370V255H130V370H245ZM495 120V5H380V120H495ZM245 245V130H130V245H245ZM370 120V5H255V120H370Z" />
<glyph unicode="u" glyph-name="u" horiz-adv-x="875" d="M745 620V505H630V620H745ZM745 495V380H630V495H745ZM745 370V255H630V370H745ZM745 245V130H630V245H745ZM245 620V505H130V620H245ZM745 120V5H630V120H745ZM245 495V380H130V495H245ZM620 120V5H505V120H620ZM245
370V255H130V370H245ZM495 120V5H380V120H495ZM245 245V130H130V245H245ZM370 120V5H255V120H370Z" />
<glyph unicode="v" glyph-name="v" horiz-adv-x="875" d="M745 620V505H630V620H745ZM745 495V380H630V495H745ZM745 370V255H630V370H745ZM245 620V505H130V620H245ZM620 245V130H505V245H620ZM245 495V380H130V495H245ZM245 370V255H130V370H245ZM370 245V130H255V245H370ZM495
120V5H380V120H495Z" />
<glyph unicode="w" glyph-name="w" horiz-adv-x="1125" d="M995 620V505H880V620H995ZM995 495V380H880V495H995ZM995 370V255H880V370H995ZM995 245V130H880V245H995ZM620 495V380H505V495H620ZM620 370V255H505V370H620ZM745 245V130H630V245H745ZM870 120V5H755V120H870ZM245
620V505H130V620H245ZM495 245V130H380V245H495ZM245 495V380H130V495H245ZM245 370V255H130V370H245ZM245 245V130H130V245H245ZM370 120V5H255V120H370Z" />
<glyph unicode="x" glyph-name="x" horiz-adv-x="875" d="M745 620V505H630V620H745ZM745 495V380H630V495H745ZM245 620V505H130V620H245ZM245 495V380H130V495H245ZM495 370V255H380V370H495ZM745 245V130H630V245H745ZM745 120V5H630V120H745ZM245 120V5H130V120H245ZM370
370V255H255V370H370ZM245 245V130H130V245H245ZM620 370V255H505V370H620Z" />
<glyph unicode="y" glyph-name="y" horiz-adv-x="875" d="M745 620V505H630V620H745ZM745 495V380H630V495H745ZM745 370V255H630V370H745ZM245 620V505H130V620H245ZM620 245V130H505V245H620ZM245 495V380H130V495H245ZM245 370V255H130V370H245ZM370 245V130H255V245H370ZM495
120V5H380V120H495ZM370 -5V-120H255V-5H370ZM245 -130V-245H130V-130H245ZM120 -130V-245H5V-130H120Z" />
<glyph unicode="z" glyph-name="z" horiz-adv-x="875" d="M745 620V505H630V620H745ZM620 620V505H505V620H620ZM495 620V505H380V620H495ZM620 495V380H505V495H620ZM370 620V505H255V620H370ZM245 620V505H130V620H245ZM495 370V255H380V370H495ZM745 120V5H630V120H745ZM620
120V5H505V120H620ZM370 245V130H255V245H370ZM495 120V5H380V120H495ZM370 120V5H255V120H370ZM245 120V5H130V120H245Z" />
<glyph unicode="{" glyph-name="braceleft" horiz-adv-x="875" d="M745 995V880H630V995H745ZM620 995V880H505V995H620ZM495 995V880H380V995H495ZM370 870V755H255V870H370ZM370 745V630H255V745H370ZM370 620V505H255V620H370ZM245 495V380H130V495H245ZM370
370V255H255V370H370ZM120 495V380H5V495H120ZM370 245V130H255V245H370ZM745 -130V-245H630V-130H745ZM370 120V5H255V120H370ZM620 -130V-245H505V-130H620ZM370 -5V-120H255V-5H370ZM495 -130V-245H380V-130H495Z" />
<glyph unicode="|" glyph-name="bar" horiz-adv-x="375" d="M245 995V880H130V995H245ZM245 870V755H130V870H245ZM245 745V630H130V745H245ZM245 620V505H130V620H245ZM245 495V380H130V495H245ZM245 370V255H130V370H245ZM245 245V130H130V245H245ZM245 120V5H130V120H245ZM245
-5V-120H130V-5H245ZM245 -130V-245H130V-130H245Z" />
<glyph unicode="}" glyph-name="braceright" horiz-adv-x="875" d="M495 995V880H380V995H495ZM620 870V755H505V870H620ZM870 495V380H755V495H870ZM370 995V880H255V995H370ZM620 745V630H505V745H620ZM245 995V880H130V995H245ZM620 620V505H505V620H620ZM745
495V380H630V495H745ZM620 370V255H505V370H620ZM620 245V130H505V245H620ZM620 120V5H505V120H620ZM620 -5V-120H505V-5H620ZM495 -130V-245H380V-130H495ZM370 -130V-245H255V-130H370ZM245 -130V-245H130V-130H245Z" />
<glyph unicode="~" glyph-name="asciitilde" horiz-adv-x="875" d="M745 1120V1005H630V1120H745ZM495 1120V1005H380V1120H495ZM620 995V880H505V995H620ZM370 1120V1005H255V1120H370ZM495 995V880H380V995H495ZM245 995V880H130V995H245Z" />
</font>
</defs>
</svg>
